adventprofmm_bld_it_krn.ufo
<glyph name="asciicircum" format="1">
  <advance width="380"/>
  <unicode hex="005E"/>
  <outline>
    <contour>
      <point x="487" y="772" type="line"/>
      <point x="381" y="898" type="line"/>
      <point x="226" y="771" type="line"/>
      <point x="269" y="718" type="line"/>
      <point x="364" y="801" type="line"/>
      <point x="423" y="719" type="line"/>
    </contour>
  </outline>
</glyph>
<glyph name="grave" format="1">
  <advance width="237"/>
  <unicode hex="0060"/>
  <outline>
    <contour>
      <point x="257" y="704" type="line"/>
      <point x="250" y="730"/>
      <point x="226" y="749"/>
      <point x="196" y="734" type="curve" smooth="yes"/>
      <point x="164" y="718"/>
      <point x="163" y="682"/>
      <point x="177" y="663" type="curve"/>
      <point x="222" y="587" type="line"/>
      <point x="266" y="587" type="line"/>
    </contour>
  </outline>
</glyph>
<glyph name="asciitilde" format="1">
  <advance width="356"/>
  <unicode hex="007E"/>
  <outline>
    <contour>
      <point x="333" y="299" type="curve"/>
      <point x="310" y="355" type="line"/>
      <point x="283" y="337"/>
      <point x="261" y="331"/>
      <point x="243" y="331" type="curve" smooth="yes"/>
      <point x="201" y="331"/>
      <point x="169" y="360"/>
      <point x="123" y="360" type="curve" smooth="yes"/>
      <point x="86" y="360"/>
      <point x="52" y="341"/>
      <point x="21" y="319" type="curve"/>
      <point x="44" y="263" type="line"/>
      <point x="71" y="279"/>
      <point x="94" y="286"/>
      <point x="114" y="286" type="curve" smooth="yes"/>
      <point x="155" y="285"/>
      <point x="186" y="257"/>
      <point x="229" y="256" type="curve" smooth="yes"/>
      <point x="269" y="256"/>
      <point x="303" y="276"/>
    </contour>
  </outline>
</glyph>
<glyph name="dieresis" format="1">
  <advance width="397"/>
  <unicode hex="00A8"/>
  <outline>
    <contour>
      <point x="165" y="767" type="curve" smooth="yes"/>
      <point x="132" y="767"/>
      <point x="100" y="740"/>
      <point x="94" y="708" type="curve" smooth="yes"/>
      <point x="89" y="675"/>
      <point x="111" y="648"/>
      <point x="144" y="648" type="curve" smooth="yes"/>
      <point x="177" y="648"/>
      <point x="208" y="675"/>
      <point x="213" y="708" type="curve" smooth="yes"/>
      <point x="219" y="740"/>
      <point x="198" y="767"/>
    </contour>
    <contour>
      <point x="323" y="767" type="curve" smooth="yes"/>
      <point x="290" y="767"/>
      <point x="258" y="740"/>
      <point x="252" y="708" type="curve" smooth="yes"/>
      <point x="247" y="675"/>
      <point x="269" y="648"/>
      <point x="302" y="648" type="curve" smooth="yes"/>
      <point x="335" y="648"/>
      <point x="367" y="675"/>
      <point x="372" y="708" type="curve" smooth="yes"/>
      <point x="378" y="740"/>
      <point x="356" y="767"/>
    </contour>
  </outline>
</glyph>
<glyph name="overscore" format="1">
  <advance width="340"/>
  <unicode hex="00AF"/>
  <outline>
    <contour>
      <point x="421" y="708" type="line"/>
      <point x="200" y="708" type="line"/>
      <point x="184" y="618" type="line"/>
      <point x="405" y="618" type="line"/>
    </contour>
  </outline>
</glyph>
<glyph name="acute" format="1">
  <advance width="237"/>
  <unicode hex="00B4"/>
  <outline>
    <contour>
      <point x="270" y="671" type="line"/>
      <point x="292" y="693"/>
      <point x="298" y="727"/>
      <point x="275" y="741" type="curve" smooth="yes"/>
      <point x="252" y="757"/>
      <point x="217" y="738"/>
      <point x="205" y="712" type="curve" smooth="yes"/>
      <point x="155" y="596" type="line"/>
      <point x="199" y="596" type="line"/>
    </contour>
  </outline>
</glyph>
<glyph name="IJ" format="1">
  <advance width="488"/>
  <unicode hex="0132"/>
  <outline>
    <contour>
      <point x="52" y="593" type="line"/>
      <point x="115" y="591" type="line"/>
      <point x="11" y="0" type="line"/>
      <point x="121" y="0" type="line"/>
      <point x="244" y="698" type="line"/>
      <point x="71" y="698" type="line"/>
    </contour>
    <contour>
      <point x="393" y="139" type="curve" smooth="yes"/>
      <point x="492" y="698" type="line"/>
      <point x="323" y="698" type="line"/>
      <point x="304" y="593" type="line"/>
      <point x="365" y="591" type="line"/>
      <point x="288" y="156" type="line" smooth="yes"/>
      <point x="276" y="90"/>
      <point x="236" y="57"/>
      <point x="165" y="57" type="curve"/>
      <point x="185" y="-37" type="line"/>
      <point x="221" y="-36"/>
      <point x="270" y="-28"/>
      <point x="313" y="3" type="curve" smooth="yes"/>
      <point x="350" y="29"/>
      <point x="381" y="71"/>
    </contour>
  </outline>
</glyph>
<glyph name="breve" format="1">
  <advance width="392"/>
  <unicode hex="02D8"/>
  <outline>
    <contour>
      <point x="433" y="705" type="line"/>
      <point x="354" y="705" type="line"/>
      <point x="353" y="698" type="line" smooth="yes"/>
      <point x="349" y="680"/>
      <point x="332" y="664"/>
      <point x="313" y="664" type="curve" smooth="yes"/>
      <point x="294" y="664"/>
      <point x="281" y="680"/>
      <point x="285" y="698" type="curve" smooth="yes"/>
      <point x="286" y="705" type="line"/>
      <point x="206" y="705" type="line"/>
      <point x="205" y="698" type="line" smooth="yes"/>
      <point x="194" y="636"/>
      <point x="236" y="585"/>
      <point x="299" y="585" type="curve" smooth="yes"/>
      <point x="360" y="585"/>
      <point x="421" y="636"/>
      <point x="432" y="698" type="curve" smooth="yes"/>
    </contour>
  </outline>
</glyph>
<glyph name="ogonek" format="1">
  <advance width="353"/>
  <unicode hex="02DB"/>
  <outline>
    <contour>
      <point x="184" y="16" type="line"/>
      <point x="93" y="7" type="line"/>
      <point x="92" y="3" type="line"/>
      <point x="21" y="-87" type="line" smooth="yes"/>
      <point x="-43" y="-175"/>
      <point x="10" y="-251"/>
      <point x="107" y="-224" type="curve" smooth="yes"/>
      <point x="130" y="-218"/>
      <point x="217" y="-190"/>
      <point x="218" y="-190" type="curve"/>
      <point x="206" y="-118" type="line"/>
      <point x="206" y="-118"/>
      <point x="126" y="-144"/>
      <point x="96" y="-154" type="curve" smooth="yes"/>
      <point x="71" y="-164"/>
      <point x="63" y="-142"/>
      <point x="78" y="-123" type="curve" smooth="yes"/>
      <point x="182" y="2" type="line"/>
    </contour>
  </outline>
</glyph>
<glyph name="hungarumlaut" format="1">
  <advance width="348"/>
  <unicode hex="02DD"/>
  <outline>
    <contour>
      <point x="195" y="645" type="line"/>
      <point x="218" y="667"/>
      <point x="224" y="702"/>
      <point x="201" y="716" type="curve" smooth="yes"/>
      <point x="178" y="730"/>
      <point x="141" y="710"/>
      <point x="130" y="685" type="curve" smooth="yes"/>
      <point x="80" y="569" type="line"/>
      <point x="124" y="569" type="line"/>
    </contour>
    <contour>
      <point x="308" y="645" type="line"/>
      <point x="330" y="667"/>
      <point x="336" y="702"/>
      <point x="313" y="716" type="curve" smooth="yes"/>
      <point x="287" y="730"/>
      <point x="254" y="711"/>
      <point x="242" y="685" type="curve" smooth="yes"/>
      <point x="192" y="569" type="line"/>
      <point x="236" y="569" type="line"/>
    </contour>
  </outline>
</glyph>
<glyph name="gravecomb" format="1">
  <advance width="144"/>
  <unicode hex="0300"/>
  <outline>
    <contour>
      <point x="84" y="587" type="line"/>
      <point x="128" y="587" type="line"/>
      <point x="119" y="704" type="line"/>
      <point x="112" y="730"/>
      <point x="88" y="749"/>
      <point x="58" y="734" type="curve" smooth="yes"/>
      <point x="26" y="718"/>
      <point x="25" y="682"/>
      <point x="39" y="663" type="curve"/>
    </contour>
  </outline>
</glyph>
<glyph name="circumflexcomb" format="1">
  <advance width="302"/>
  <unicode hex="0302"/>
  <outline>
    <contour>
      <point x="164" y="673" type="line"/>
      <point x="225" y="592" type="line"/>
      <point x="287" y="643" type="line"/>
      <point x="181" y="770" type="line"/>
      <point x="27" y="642" type="line"/>
      <point x="70" y="591" type="line"/>
    </contour>
  </outline>
</glyph>
<glyph name="tildecomb" format="1">
  <advance width="308"/>
  <unicode hex="0303"/>
  <outline>
    <contour>
      <point x="290" y="645" type="curve"/>
      <point x="275" y="705" type="line"/>
      <point x="260" y="694"/>
      <point x="241" y="686"/>
      <point x="225" y="686" type="curve" smooth="yes"/>
      <point x="188" y="686"/>
      <point x="161" y="705"/>
      <point x="128" y="705" type="curve" smooth="yes"/>
      <point x="89" y="705"/>
      <point x="61" y="690"/>
      <point x="32" y="671" type="curve"/>
      <point x="51" y="613" type="line"/>
      <point x="60" y="619"/>
      <point x="75" y="630"/>
      <point x="99" y="631" type="curve" smooth="yes"/>
      <point x="137" y="631"/>
      <point x="166" y="614"/>
      <point x="201" y="614" type="curve" smooth="yes"/>
      <point x="235" y="614"/>
      <point x="266" y="628"/>
    </contour>
  </outline>
</glyph>
<glyph name="macroncomb" format="1">
  <advance width="288"/>
  <unicode hex="0304"/>
  <outline>
    <contour>
      <point x="33" y="618" type="line"/>
      <point x="254" y="618" type="line"/>
      <point x="270" y="708" type="line"/>
      <point x="49" y="708" type="line"/>
    </contour>
  </outline>
</glyph>
<glyph name="brevecomb" format="1">
  <advance width="278"/>
  <unicode hex="0306"/>
  <outline>
    <contour>
      <point x="263" y="698" type="curve" smooth="yes"/>
      <point x="264" y="705" type="line"/>
      <point x="185" y="705" type="line"/>
      <point x="184" y="698" type="line"/>
      <point x="180" y="680"/>
      <point x="163" y="664"/>
      <point x="144" y="664" type="curve" smooth="yes"/>
      <point x="125" y="664"/>
      <point x="112" y="680"/>
      <point x="116" y="698" type="curve"/>
      <point x="117" y="705" type="line"/>
      <point x="37" y="705" type="line"/>
      <point x="36" y="698" type="line" smooth="yes"/>
      <point x="25" y="636"/>
      <point x="67" y="585"/>
      <point x="130" y="585" type="curve" smooth="yes"/>
      <point x="191" y="585"/>
      <point x="252" y="636"/>
    </contour>
  </outline>
</glyph>
<glyph name="dotaccentcomb" format="1">
  <advance width="176"/>
  <unicode hex="0307"/>
  <outline>
    <contour>
      <point x="106" y="774" type="curve" smooth="yes"/>
      <point x="73" y="774"/>
      <point x="42" y="749"/>
      <point x="36" y="716" type="curve" smooth="yes"/>
      <point x="30" y="683"/>
      <point x="52" y="656"/>
      <point x="85" y="656" type="curve" smooth="yes"/>
      <point x="118" y="656"/>
      <point x="149" y="683"/>
      <point x="155" y="716" type="curve" smooth="yes"/>
      <point x="161" y="749"/>
      <point x="139" y="774"/>
    </contour>
  </outline>
</glyph>
<glyph name="dieresiscomb" format="1">
  <advance width="334"/>
  <unicode hex="0308"/>
  <outline>
    <contour>
      <point x="106" y="767" type="curve" smooth="yes"/>
      <point x="73" y="767"/>
      <point x="41" y="740"/>
      <point x="35" y="708" type="curve" smooth="yes"/>
      <point x="30" y="675"/>
      <point x="52" y="648"/>
      <point x="85" y="648" type="curve" smooth="yes"/>
      <point x="118" y="648"/>
      <point x="149" y="675"/>
      <point x="154" y="708" type="curve" smooth="yes"/>
      <point x="160" y="740"/>
      <point x="139" y="767"/>
    </contour>
    <contour>
      <point x="264" y="767" type="curve" smooth="yes"/>
      <point x="231" y="767"/>
      <point x="199" y="740"/>
      <point x="193" y="708" type="curve" smooth="yes"/>
      <point x="188" y="675"/>
      <point x="210" y="648"/>
      <point x="243" y="648" type="curve" smooth="yes"/>
      <point x="276" y="648"/>
      <point x="308" y="675"/>
      <point x="313" y="708" type="curve" smooth="yes"/>
      <point x="319" y="740"/>
      <point x="297" y="767"/>
    </contour>
  </outline>
</glyph>
<glyph name="dieresistonos" format="1">
  <advance width="397"/>
  <unicode hex="0385"/>
  <outline>
    <contour>
      <point x="291" y="693" type="curve" smooth="yes"/>
      <point x="297" y="726"/>
      <point x="275" y="752"/>
      <point x="242" y="752" type="curve" smooth="yes"/>
      <point x="209" y="752"/>
      <point x="178" y="726"/>
      <point x="172" y="693" type="curve" smooth="yes"/>
      <point x="166" y="660"/>
      <point x="188" y="634"/>
      <point x="221" y="634" type="curve" smooth="yes"/>
      <point x="254" y="634"/>
      <point x="285" y="660"/>
    </contour>
    <contour>
      <point x="450" y="693" type="curve" smooth="yes"/>
      <point x="456" y="726"/>
      <point x="433" y="752"/>
      <point x="400" y="752" type="curve" smooth="yes"/>
      <point x="367" y="752"/>
      <point x="336" y="726"/>
      <point x="330" y="693" type="curve" smooth="yes"/>
      <point x="324" y="660"/>
      <point x="346" y="634"/>
      <point x="379" y="634" type="curve" smooth="yes"/>
      <point x="412" y="634"/>
      <point x="444" y="660"/>
    </contour>
    <contour>
      <point x="409" y="807" type="line" smooth="yes"/>
      <point x="431" y="829"/>
      <point x="439" y="865"/>
      <point x="415" y="880" type="curve" smooth="yes"/>
      <point x="389" y="892"/>
      <point x="358" y="877"/>
      <point x="344" y="849" type="curve" smooth="yes"/>
      <point x="293" y="733" type="line"/>
      <point x="337" y="733" type="line"/>
    </contour>
  </outline>
</glyph>
<glyph name="Y_alt" format="1">
  <advance width="469"/>
  <unicode hex="9997"/>
  <outline>
    <contour>
      <point x="245" y="315" type="line"/>
      <point x="493" y="698" type="line"/>
      <point x="376" y="698" type="line"/>
      <point x="210" y="433" type="line"/>
      <point x="138" y="698" type="line"/>
      <point x="22" y="698" type="line"/>
      <point x="133" y="315" type="line"/>
      <point x="78" y="0" type="line"/>
      <point x="190" y="0" type="line"/>
    </contour>
  </outline>
</glyph>
<glyph name="caroncomb" format="1">
  <advance width="298"/>
  <outline>
    <contour>
      <point x="24" y="715" type="line"/>
      <point x="129" y="588" type="line"/>
      <point x="284" y="716" type="line"/>
      <point x="241" y="768" type="line"/>
      <point x="146" y="686" type="line"/>
      <point x="86" y="767" type="line"/>
    </contour>
  </outline>
</glyph>
<glyph name="cedillacomb" format="1">
  <advance width="218"/>
  <outline>
    <contour>
      <point x="99" y="-42" type="curve"/>
      <point x="131" y="0" type="line"/>
      <point x="65" y="0" type="line"/>
      <point x="6" y="-75" type="line"/>
      <point x="17" y="-114" type="line"/>
      <point x="58" y="-111"/>
      <point x="88" y="-107"/>
      <point x="108" y="-107" type="curve" smooth="yes"/>
      <point x="133" y="-107"/>
      <point x="140" y="-120"/>
      <point x="137" y="-138" type="curve" smooth="yes"/>
      <point x="134" y="-155"/>
      <point x="121" y="-168"/>
      <point x="93" y="-168" type="curve" smooth="yes"/>
      <point x="50" y="-168"/>
      <point x="-3" y="-158"/>
      <point x="-4" y="-158" type="curve"/>
      <point x="-14" y="-187"/>
      <point x="-19" y="-196"/>
      <point x="-29" y="-223" type="curve"/>
      <point x="-27" y="-224"/>
      <point x="22" y="-235"/>
      <point x="70" y="-235" type="curve" smooth="yes"/>
      <point x="152" y="-235"/>
      <point x="194" y="-193"/>
      <point x="205" y="-133" type="curve" smooth="yes"/>
      <point x="213" y="-86"/>
      <point x="187" y="-40"/>
      <point x="126" y="-40" type="curve" smooth="yes"/>
      <point x="122" y="-40"/>
      <point x="117" y="-41"/>
    </contour>
  </outline>
</glyph>
<glyph name="commaturnedabovecomb" format="1">
  <advance width="142"/>
  <outline>
    <contour>
      <point x="142" y="726" type="curve"/>
      <point x="119" y="741" type="line"/>
      <point x="119" y="741"/>
      <point x="45" y="700"/>
      <point x="29" y="609" type="curve" smooth="yes"/>
      <point x="23" y="576"/>
      <point x="45" y="550"/>
      <point x="78" y="550" type="curve" smooth="yes"/>
      <point x="111" y="550"/>
      <point x="143" y="576"/>
      <point x="149" y="609" type="curve" smooth="yes"/>
      <point x="154" y="637"/>
      <point x="138" y="661"/>
      <point x="115" y="667" type="curve"/>
      <point x="119" y="686"/>
      <point x="128" y="708"/>
    </contour>
  </outline>
</glyph>
<glyph name="hungarumlautcomb" format="1">
  <advance width="291"/>
  <outline>
    <contour>
      <point x="26" y="569" type="line"/>
      <point x="70" y="569" type="line"/>
      <point x="141" y="645" type="line"/>
      <point x="164" y="667"/>
      <point x="170" y="702"/>
      <point x="147" y="716" type="curve" smooth="yes"/>
      <point x="124" y="730"/>
      <point x="87" y="710"/>
      <point x="76" y="685" type="curve" smooth="yes"/>
    </contour>
    <contour>
      <point x="138" y="569" type="line"/>
      <point x="182" y="569" type="line"/>
      <point x="254" y="645" type="line" smooth="yes"/>
      <point x="276" y="667"/>
      <point x="282" y="702"/>
      <point x="259" y="716" type="curve"/>
      <point x="233" y="730"/>
      <point x="200" y="711"/>
      <point x="188" y="685" type="curve" smooth="yes"/>
    </contour>
  </outline>
</glyph>
<glyph name="ogonekcomb" format="1">
  <advance width="236"/>
  <outline>
    <contour>
      <point x="74" y="-123" type="curve" smooth="yes"/>
      <point x="178" y="2" type="line"/>
      <point x="180" y="16" type="line"/>
      <point x="89" y="7" type="line"/>
      <point x="88" y="3" type="line"/>
      <point x="17" y="-87" type="line" smooth="yes"/>
      <point x="-47" y="-175"/>
      <point x="6" y="-251"/>
      <point x="103" y="-224" type="curve" smooth="yes"/>
      <point x="126" y="-218"/>
      <point x="213" y="-190"/>
      <point x="214" y="-190" type="curve"/>
      <point x="202" y="-118" type="line"/>
      <point x="202" y="-118"/>
      <point x="122" y="-144"/>
      <point x="92" y="-154" type="curve"/>
      <point x="67" y="-164"/>
      <point x="59" y="-142"/>
    </contour>
  </outline>
</glyph>
<glyph name="ringcomb" format="1">
  <advance width="282"/>
  <outline>
    <contour>
      <point x="168" y="774" type="curve" smooth="yes"/>
      <point x="105" y="774"/>
      <point x="45" y="724"/>
      <point x="34" y="661" type="curve" smooth="yes"/>
      <point x="23" y="598"/>
      <point x="65" y="547"/>
      <point x="128" y="547" type="curve" smooth="yes"/>
      <point x="191" y="547"/>
      <point x="251" y="598"/>
      <point x="262" y="661" type="curve" smooth="yes"/>
      <point x="273" y="724"/>
      <point x="231" y="774"/>
    </contour>
    <contour>
      <point x="154" y="692" type="curve" smooth="yes"/>
      <point x="171" y="692"/>
      <point x="182" y="678"/>
      <point x="179" y="661" type="curve" smooth="yes"/>
      <point x="176" y="642"/>
      <point x="159" y="629"/>
      <point x="142" y="629" type="curve" smooth="yes"/>
      <point x="126" y="629"/>
      <point x="114" y="642"/>
      <point x="117" y="661" type="curve" smooth="yes"/>
      <point x="120" y="678"/>
      <point x="138" y="692"/>
    </contour>
  </outline>
</glyph>
